<?xml version="1.0" encoding="utf-8"?>
<!-- Generator: Adobe Illustrator 24.1.2, SVG Export Plug-In . SVG Version: 6.00 Build 0)  -->
<svg version="1.1" id="_x2D_deT_1" xmlns="http://www.w3.org/2000/svg" xmlns:xlink="http://www.w3.org/1999/xlink" x="0px" y="0px"
	 viewBox="0 0 198 65" xml:space="preserve">
<style type="text/css">
	.st0{fill-rule:evenodd;clip-rule:evenodd;fill:#FFFFFF;}
</style>
<g>
	<path class="st0" d="M49.6,52.7c0,1.3-0.5,2.8-1.5,4.4c-1,1.6-2.3,3.1-3.8,4.2c-1.5,1.2-3,1.8-4.5,1.8h-27c-2.2,0-4.2-0.6-6-1.9
		c-1.9-1.3-3.3-2.9-4.4-4.8c-1.1-1.9-1.6-3.8-1.6-5.6v-26h10.8V48c0,1.1,0.3,2,0.9,2.9c0.6,0.9,1.3,1.6,2.2,2.1
		c0.8,0.5,1.6,0.8,2.2,0.8h16.6c0.7,0,1.4-0.3,2.2-0.9c0.8-0.6,1.4-1.3,1.9-2.1c0.5-0.8,0.8-1.5,0.8-2.1V24.9h11.3V52.7z"/>
	<path class="st0" d="M107.6,54.8c0,1.1-0.3,2.4-1,3.9c-0.7,1.5-1.8,2.8-3.3,4c-1.5,1.1-3.5,1.7-5.9,1.7c-2.4,0-4.2-0.3-5.4-1
		c-1.2-0.7-2.4-1.9-3.8-3.7L69.6,37.3c-0.6-0.8-1.1-1.3-1.4-1.5c-0.3-0.2-0.8-0.3-1.3-0.3c-0.3,0-0.7,0.1-1,0.4
		c-0.4,0.3-0.5,0.6-0.5,1.1v26.2H54.5V32.7c0-0.5,0.2-1.3,0.5-2.2c0.3-0.9,0.9-1.9,1.7-2.9c0.8-1,1.9-1.8,3.2-2.5
		c1.3-0.7,2.9-1,4.8-1c2.4,0,4.2,0.4,5.6,1.2c1.3,0.8,2.4,1.7,3.2,2.6l18.7,22c0.6,0.8,1.1,1.3,1.5,1.5c0.4,0.2,0.9,0.3,1.4,0.3
		c0.6,0,1-0.2,1.2-0.6c0.2-0.4,0.2-0.9,0.2-1.6c0-5.7,0-11.3,0-17c0-40.8,59.1-37,68.7-0.7c-13.5-32.4-57.7-33.1-57.7,5.4V54.8z"/>
	<rect x="115.2" y="24.9" class="st0" width="11" height="38.2"/>
	<path class="st0" d="M197.3,63.1h-11.1V39.4c0-0.4-0.2-0.7-0.5-1c-0.3-0.3-0.6-0.4-0.9-0.4c-0.8,0-1.3,0.3-1.7,1l-13.3,24.2h-10.5
		l-13.7-24.3c-0.1-0.3-0.2-0.6-0.5-0.8c-0.2-0.2-0.5-0.4-0.7-0.5c-0.3-0.1-0.5-0.2-0.6-0.2c-0.3,0-0.6,0.2-0.9,0.5
		c-0.3,0.4-0.4,0.7-0.4,1.1v24.1h-10.8V33.7c0-1.4,0.3-2.7,1-3.9c0.7-1.2,1.6-2.2,2.6-3c1-0.8,2.2-1.4,3.3-1.9
		c1.2-0.5,2.2-0.7,3.1-0.7c2.5,0,4.6,0.6,6.3,1.9c1.7,1.3,3.4,3.5,5.3,6.6l10.9,19.7l11.3-19.8c1.5-2.7,3.1-4.8,4.8-6.3
		c1.7-1.4,3.9-2.2,6.4-2.2c1.5,0,2.9,0.3,4.2,0.9c1.3,0.6,2.4,1.4,3.4,2.4c0.9,1,1.7,2.1,2.1,3.3c0.5,1.2,0.7,2.4,0.7,3.5V63.1z"/>
	<path class="st0" d="M115.2,22.5c3.6,0,7.4,0,11,0c0-4,0-6.2,0-10.2C121.6,13.4,116.9,17.5,115.2,22.5z"/>
</g>
</svg>
